<svg xmlns="http://www.w3.org/2000/svg" width="32" height="32" fill="none">
  <path fill="#006B99" d="M18.3 15.1c.4 0 .6-.1.8-.6.9-1.5 1.6-1.6 2-.3.3 1.3 1.7 1.5 1.7.2 0-1.4-2.2-2.6-3.8-2-1.2.4-1.8 2.7-.7 2.7Zm-7.3.5c0-1.3.8-1.8 1.2-.8.4 1.1 1.2 1.4 1.5.6.6-1.4-2.5-2.9-3.8-1.8-.6.4-1 1.7-.9 2.2.3.6 2 .4 2-.2Zm.9 6.9c3.7 1.6 7.4 1.1 9.9-1.3 2.6-2.6 1.6-5.3-1.8-4.8a8 8 0 0 0-2 .8c-1.7.7-2.7.8-5 .2-3.8-.8-4.7 3.5-1.1 5.1Zm9.5-5c.7.8.4 2.2-.6 3-.7.7-.6.7-1-.8l-.5-1.5c-.3-.7 1.7-1.3 2.1-.7Zm-4.1 1c.8-.3.8-.3 1.2 1.5.4 2 .4 2-.3 2.2-1.4.5-1.2.5-1.6-3.6l.7-.2Zm-3.3.1h1.5c0 2.9 0 2.8.3 3.9l-.8-.1c-1.1-.3-1-.3-1-3.8Zm-1.6-.5c.5.2.7 3.6.2 3.6-.4 0-1.4-1.3-1.6-2-.2-1.2.4-1.8 1.4-1.6Z"/>
  <path fill="#006B99" d="M20.9 7.3c-2.2-1.1-2.3-.7-.2 1.3 6.4 6.2 4.6 15.5-3 16.3-6 .6-10.2-3-10.1-8.6 0-4.4 3-9 7.7-9.6 1 0 1 0 .6-.3-.7-.4-2.6-.3-3.8 0-1.5.6-3 1.8-4.3 3.2-3 3.7-2.7 9.4-.3 12.8 3 4.2 13 5 16.5 1.2 4.4-4.6 2.8-13.3-3-16.3Z"/>
</svg>
