<svg xmlns="http://www.w3.org/2000/svg" width="32" height="32" fill="none">
  <path fill="#006B99" fill-rule="evenodd" d="M12.63 6.97c-1.75 1.49-2.16 1.69-3.89 1.87-2.25.24-2.2.22-2.12.67.08.48.21 2.3.25 2.77C5.2 14.2 5.14 14.12 5.3 15.2c.06.44-.06 4.48.22 8.23.07.94.38 1.38 1.25 1.83 1.69.84 3.08.35 1.75-.62-1.2-.87-1.31-1.25-1.44-4.7a58.75 58.75 0 0 0-.22-3.42c-.34-3 .69-1.75.64-1.5-.08.67.26 1.2 1.75 1.98.9.46 4.25 2.61 5.59 3.06 1.98.69 2.79-.55 7.45-3.74a5.97 5.97 0 0 0 1.74-1.6c.82-1.25.9 5.09.1 7.78-.53 1.8-.69 1.86-5.81 1.98-5.25.13-7.75.47-7.63.85.31.92 11.95 1.13 13.8.26.8-.39 1.7-2.38 1.86-3.35.25-1.44.27-3.64.04-6.58-.15-2.1-.36-2.57-1.53-3.6-.4-.37-.43-1.06-.07-2.44.14-.53.33-1.39-.95-1.39s-3.33.09-3.68.09c-.5-.31-2.6-1.5-2.96-1.87-.33-.25-2.3-1.4-4.57.52Zm4.57.79c.47.3.87.57.87.61 0 .03-1.21.06-2.69.06-2.86 0-2.92-.03-1.92-.65 1.43-.9 2.34-.9 3.74-.02Zm6 5.95c-.12.56-.72.82-1.13.5-.3-.23-.58-.29-1.71-.29-.36 0-6.4-.03-9.18.17-2.44.17-1.13 1.14.16 1.3 1.08.15 9.79-.19 9.62.08-.09.14-2.84 2.16-4.65 3.63-.38-.2-7.44-3.79-7.71-3.79-.24 0-.4-5.45-.4-5.46.05-.06 8.2-.28 14.9-.28.23 2.08.36 2.8.1 4.14Zm-6.86-2.12c-.89.89.08 1.22 3.33 1.17 2.9-.06 3.13-.12 2.57-.76-.5-.6-5.4-.93-5.9-.4Z" clip-rule="evenodd"/>
</svg>
