<svg xmlns="http://www.w3.org/2000/svg" width="32" height="32" fill="none">
  <path fill="#006B99" fill-rule="evenodd" d="M13.68 4.17c-.26.1-.4.25-.37.4.05.25-5.29 7.47-6.66 11.84-.42 1.37.26 1.56 3.38.96 1.89-.36 1.82-.74.56 2.78a66.58 66.58 0 0 0-1.93 6.08c-.44 1.75.48 2.66 2.75.3.97-1.02 3.18-3.3 8.36-9.21 4.4-5 4.38-4.88.92-5l-2.14-.1c1-1.06 4.76-5.1 5.9-6.04 1.16-.96 1.52-1.36-.02-1.58-1.8-.26-7.84-.36-9.62-.52-.4-.04-.91 0-1.13.09Zm8.62 1.47-.75.62c-1.85 1.51-5.5 5.86-5.5 6.53 0 .73 1.22.66 4.38.66-4.66 5.4-8.3 9.6-8.38 9.6-.03 0 .3-.96.76-2.16 1.68-4.52 1.77-5.36.58-5.22-2.07.25-4.09.53-4.37.61-.24.08-.08-.32.85-2.06 1.66-3.17 2.32-4.09 5.23-8.93 5.55.25 5.49.25 7.2.35Z" clip-rule="evenodd"/>
</svg>
