<svg xmlns="http://www.w3.org/2000/svg" width="32" height="32" fill="none">
  <path fill="#006B99" d="M27.61 16.55c-1.02-6.34-5.43-11-9.36-9.89-.83.23-1.48.78-4.11 3.5-1.37 1.42-1.8 1.77-2.03 1.69-2.55-1-4.16.25-4.14 3.24a9 9 0 0 0 .59 3.61c.14.42-1.64 2.08-3.86 4.43-1.8 1.63.09 2.13 2.79 1.26 4.64-1.5 3.92-1.43 5.53-.53 2.63 1.48 6.06 2.03 7.61 1.22a.84.84 0 0 0 .46-.85l-.14-1.52c2.13-.86 4.7-1.73 5.92-2.6 1.21-.9 1.04-1.75.74-3.56Zm-20.14 6.4c-.17 0 1.87-2.25 2-2.4.04.18.48.88 1.1 1.3.02.08-2.82 1.1-3.1 1.1Zm15.78-3.42c-.87.2-3.61 1.3-4.58 1.84-.7.39-.73.43-.64.93.34 1.9.44 1.8-1.21 1.37-3.74-.96-8.07-8.3-6.36-10.78.48-.7 1.15.19 1.2 1.6.05 1.5 1.37 3.96 2.3 4.57.55.36.83-.08.7-.36-1.82-3.33-1.52-4.22-1.4-4.72 0 0 3.98-4.02 4.3-4.37 1.2-1.28 2.26-1.34 3.43-.22 2.15 2.08 3.8 5.4 4.22 8.44.1.81-.56 1.39-1.96 1.7Z"/>
  <path fill="#006B99" d="M23.36 17.16c-1.8.95-5.36-5.65-3.7-6.85.74-.55-.41-1.22-1.04-.52-1.04 1.19-.03 7.67 4.27 8.42.78.14 1.42 0 1.48-.53.07-.46-.53-.78-1.01-.52Z"/>
</svg>
