<svg xmlns="http://www.w3.org/2000/svg" width="55" height="55" fill="none">
  <path fill="#000001" d="M38.15 37.06c.46.2.95.09 1.32-.24.33-.28 1.87-1.69 2.45-2.03.74-.44 1.3-7.82 1.3-7.8.04-.43-.1-.87-.41-1.17-2.97-3.01-3.12-3.4-6.65-3.83-.98-.13-1.62-.09-1.75.13-.55.86 1.9 2.44 3.83 2.44.73 0 3 2.4 2.8 2.95-.16.37-.1 2.73-.12 5.33l-.97.5c-.54.28-1.21.77-1.5 1.14-.5.63-.54.63-1.38.13-.8-.47-2.19-.45-2.19.05 0 .43 1.71 1.8 2.84 2.25l.43.15Z"/>
  <path fill="#000001" d="M48.22 18.65a2.14 2.14 0 0 0-.8-1.73c-.97-.76-2.03-.85-2.55-.24-1.65 2-8.28 1.28-14.93-1.62a29.9 29.9 0 0 0-14.4-2.43c-9.87.97-8.86 1.21-7.9 25.4l1.06.54c1.04.55 1.13.55 4.07-.1 4.7-1.04 12.37-.96 16.83.15 4 1 4.83.82 3.18-.74-3.03-2.86-15.12-4.5-20.01-2.7-1 .36-1.93.64-2.08.64-.52 0 .46-6.51-.04-20 .02 0 10.24-2.89 17.84.99 4.12 2.1 9.14 3.46 12.91 3.49h3.66c0 17.6.15 19.44-.48 19.44-.28 0-1.99-.2-3.8-.43-3.54-.45-4.04-.37-3.32.65.7.98 5.04 2.04 7.77 2.17 2.52.13 2.21-.24 2.32-1.78.1-1.88 0-.39.67-21.7Z"/>
  <path fill="#000001" d="M15.17 20.36a3.98 3.98 0 0 0 2.02-1.7c.08-.3.89-.27 3.36.01 6.1.72 3.29-1.82 2.12-2.14-1.37-.4-3.49-.24-5.91.13-.46.06-1 .41-1.2.78-.2.37-1.19.97-1.88 1.69-1.88 1.88-2.08 11.3-.26 11.58 1.5.22 2 .41 2.75 1.13.93.84 1.04.76 7.21.76.85 0 1.3-2.08-4-2.3-2.2-.08-2.67-.21-3.45-.86a3.85 3.85 0 0 0-1.19-.76c-.67 0-.24-8.17.43-8.32Z"/>
  <path fill="#000001" d="M28.08 32.03c.24-.3.41-1.47.41-1.58 0-.1.65-.06 1.37-.26 2.64-.71 2.57-3.92-.11-5.43-.74-.41-3.42-.57-3.05-2.21.26-1.21 1.16-.8 2.14-.33.67.3 1.26.65 1.84.96 1.04.54 1.02-.85.33-1.43a7.44 7.44 0 0 0-1.7-1.02c-.12-.07.14-.7-.08-1.15-.46-.93-1.75-1.34-1.75-.54 0 .1-.2.98-.2.98-.02 0-2.32-1.07-3.18 1.49-.44 1.28.1 3.14 1.73 3.64 1.3.4 3.66.82 3.49 2.16-.24 1.87-3.4.59-3.43.59-2.25-.56-3.79.17-1.12 1.36.45.22 1.47.48 1.69.67.21.2-.02 1.43-.02 1.65.04.95 1.12 1.17 1.64.45Z"/>
</svg>
