<svg xmlns="http://www.w3.org/2000/svg" width="55" height="55" fill="none">
  <path fill="#000001" fill-rule="evenodd" d="M30.3 6.3a70.7 70.7 0 0 0-19 21c-2 4-1.8 4.2 5 4.6l4.9.3-8 13.9c-2 3.3.7 5.5 3.5 2.9 0 0 23.7-18.5 28-24.6.5-.7.3-1.5-.7-2.3-1.8-1.3-4.2-1.7-12.9-2.4-1.3-.1-2-.3-1.8-.5.6-1.5 3-8 4.2-10.7 1.4-3 1.3-4.5-3.2-2.2Zm-1.8 5.8-3.2 7.6c-.6 1.3-.2 2 1.5 2.2 5.5.6 7.7.8 10 .9 3.6.2 3.6 0-.3 4a184.5 184.5 0 0 1-15 13.6c-.1-.2 3.3-6.7 4.2-7.9 1.6-2.2 1.1-2.5-4.2-2.5h-5c-1-.2-1.7-1.3-1.1-2.2 1.9-3.5 5.3-8 11-14.2 2.6-2.8 2.7-2.9 2.1-1.5Z" clip-rule="evenodd"/>
</svg>
