<svg xmlns="http://www.w3.org/2000/svg" width="135" height="47" fill="none">
  <path fill="#2D2D2D" d="m54.96 37.58-7.13-25.35h4.92l4.55 18.63h.24l4.85-18.63h4.48l4.87 18.64h.22l4.55-18.64h4.91L74.3 37.58h-4.51l-5.06-17.79h-.2l-5.06 17.79h-4.51ZM88.5 26.44v11.14h-4.46V12.23h4.37v9.57h.22a5.5 5.5 0 0 1 2.06-2.54 6.3 6.3 0 0 1 3.57-.94 6.9 6.9 0 0 1 3.44.83 5.58 5.58 0 0 1 2.27 2.42 8.5 8.5 0 0 1 .81 3.9v12.1h-4.46v-11.4c0-1.28-.33-2.28-.99-2.99a3.5 3.5 0 0 0-2.73-1.07c-.8 0-1.5.17-2.12.52-.62.33-1.1.83-1.46 1.47a4.9 4.9 0 0 0-.52 2.34ZM105 37.58V18.57h4.47v19H105Zm2.25-21.71a2.6 2.6 0 0 1-1.83-.7 2.28 2.28 0 0 1-.76-1.73c0-.67.25-1.25.76-1.72a2.57 2.57 0 0 1 1.83-.71c.71 0 1.32.23 1.82.71.51.47.77 1.05.77 1.72 0 .67-.26 1.25-.77 1.72-.5.47-1.1.7-1.82.7Zm6.46 21.7v-19h4.32v3.17h.2a4.75 4.75 0 0 1 4.67-3.45 10.23 10.23 0 0 1 1.6.13v4.12a8.26 8.26 0 0 0-2.07-.26 4.5 4.5 0 0 0-2.19.53 3.88 3.88 0 0 0-2.07 3.6v11.17h-4.46Zm17.88-25.34v25.35h-4.47V12.23h4.47Z"/>
  <path fill="#006B99" fill-rule="evenodd" d="M23.6 7.13a16.72 16.72 0 0 0-14.81.98L6.54 9.4l-2.6-4.5L6.2 3.6a21.91 21.91 0 0 1 27.5 4.54 22.09 22.09 0 0 1-6.8 34.33 23.85 23.85 0 0 1-9.72 2.28c-2.8 0-4.43-.42-6.58-1.31a17.18 17.18 0 0 1-9.3-9.34 17.3 17.3 0 0 1 9.3-22.53 17.12 17.12 0 0 1 22.45 9.33c.37.9.67 1.83.88 2.77A16.91 16.91 0 0 0 23.6 7.13ZM6.8 33.54a10.6 10.6 0 0 1 10.58-10.06A10.6 10.6 0 0 1 27.9 32.9 12.1 12.1 0 0 0 25.65 19 11.98 11.98 0 0 0 6.11 32.12c.2.49.43.96.7 1.42Zm15.97.57a5.4 5.4 0 1 1-10.8.02 5.4 5.4 0 0 1 10.8-.02Z" clip-rule="evenodd"/>
</svg>
