<svg xmlns="http://www.w3.org/2000/svg" width="148" height="33" fill="none">
  <path fill="#969FA4" d="M49.2 26.3a9 9 0 0 1-8.3-4.8c-.8-1.5-1.2-3.3-1.2-5.3s.4-3.7 1.2-5.2a9 9 0 0 1 3.3-3.5c1.5-.9 3.1-1.3 5-1.3s3.5.4 5 1.3a9 9 0 0 1 3.2 3.5 11 11 0 0 1 1.2 5.2c0 2-.4 3.8-1.2 5.3a8.8 8.8 0 0 1-8.2 4.8Zm0-3.2c1.8 0 3.2-.6 4.3-1.8a8 8 0 0 0 1.6-5c0-2.2-.5-3.9-1.6-5a5.4 5.4 0 0 0-4.3-2c-1.8 0-3.2.7-4.3 2a7.3 7.3 0 0 0-1.6 5c0 2 .5 3.7 1.6 5 1 1.2 2.5 1.8 4.3 1.8ZM61.6 32V12.3h3l.4 2c.5-.7 1-1.2 1.7-1.7a5 5 0 0 1 2.8-.7c1.3 0 2.4.4 3.4 1s1.7 1.5 2.3 2.6c.6 1 .9 2.3.9 3.7 0 1.4-.3 2.6-.9 3.7-.6 1.1-1.3 2-2.3 2.6-1 .6-2.1.9-3.4.9-1 0-1.9-.2-2.6-.6a6 6 0 0 1-1.9-1.6v8h-3.4Zm7.2-8.8c1 0 2-.4 2.7-1.1.7-.8 1-1.8 1-3s-.3-2.2-1-3a3.5 3.5 0 0 0-2.7-1.1c-1.1 0-2 .4-2.8 1.1-.7.8-1 1.8-1 3s.3 2.2 1 3a4 4 0 0 0 2.8 1ZM84.6 26a5 5 0 0 1-3.4-1c-.8-.8-1.2-2-1.2-3.8v-6h-2.3v-3H80l.4-3.7h3v3.7H87v3h-3.6v6c0 .7.1 1.1.4 1.4.3.2.8.3 1.5.3h1.6v3h-2.3Zm7.2-16c-.6 0-1.1-.2-1.5-.5a2 2 0 0 1-.6-1.5c0-.6.2-1 .6-1.5.4-.3 1-.5 1.5-.5.7 0 1.2.2 1.6.5.4.4.6.9.6 1.5s-.2 1-.6 1.5c-.4.3-1 .5-1.6.5Zm-1.7 16V12.2h3.5V26H90Zm7.1 0V12.2h3l.3 1.8c.4-.6 1-1.2 1.7-1.5a5 5 0 0 1 2.5-.7c2 0 3.5.9 4.4 2.5a5.6 5.6 0 0 1 4.6-2.5 5 5 0 0 1 4 1.7c1 1 1.4 2.6 1.4 4.7V26h-3.4v-7.5c0-1.2-.2-2-.7-2.7-.4-.6-1.1-1-2-1-1 0-1.7.4-2.3 1.1-.5.7-.8 1.7-.8 3v7h-3.5v-7.4c0-1.2-.2-2-.6-2.7-.5-.6-1.2-1-2.1-1-1 0-1.7.4-2.2 1.1-.6.7-.9 1.7-.9 3v7h-3.4Zm31.7.3a6.4 6.4 0 0 1-6-3.4 8.2 8.2 0 0 1 0-7.5 6.5 6.5 0 0 1 6-3.6 6 6 0 0 1 3.5 1c1 .5 1.8 1.3 2.3 2.4a6.8 6.8 0 0 1 .9 4v.7h-10.2c0 1.1.4 2 1 2.6.7.6 1.5.9 2.5.9a3 3 0 0 0 1.7-.5 3 3 0 0 0 1.1-1.3h3.5c-.3 1-.7 1.7-1.3 2.4-.5.7-1.3 1.3-2.1 1.7a7 7 0 0 1-3 .6Zm0-11.6c-.8 0-1.6.3-2.2.8-.7.5-1 1.2-1.3 2.2h6.7a3 3 0 0 0-1-2.2c-.6-.5-1.3-.8-2.2-.8Zm9.6 11.3V12.2h3l.4 2.6c.5-1 1.1-1.6 2-2.1.8-.6 1.8-.9 3-.9v3.8h-1a4 4 0 0 0-2 .4c-.7.2-1.1.6-1.5 1.2-.3.6-.4 1.4-.4 2.5V26h-3.5Z"/>
  <path fill="#969FA4" fill-opacity=".8" d="m29.9 8.3-18 19c-.2 0-.4 0-.4-.2l.1-9.3.1-.1 18-9.7c.2 0 .3.2.2.3Z"/>
  <path fill="#969FA4" d="m30.8 6.8-.3.4-20.5 11-7.5-4.9c-.2-.1-.1-.4 0-.4l28.3-6Z"/>
  <path fill="#969FA4" fill-rule="evenodd" d="M31 6.6c.2.1.2.3 0 .4l-.2.4-.1.1-20.5 11.1h-.4l-7.5-5c-.4-.3-.3-1 .2-1.1l28.2-6 .4.1ZM3 13.2l7 4.6L29 7.6 3 13.2Z" clip-rule="evenodd"/>
  <path fill="url(#a)" fill-rule="evenodd" d="M31.1 7c0-.2 0-.4-.2-.5l-.4.1-.2.3L9.7 18.2l-.2.4 1.6 8.4c0 .2.2.3.4.3.1 0 .3 0 .3-.2l2.5-6.3 16.5-13 .1-.3.2-.6Z" clip-rule="evenodd"/>
  <path fill="#969FA4" d="m30.8 6.8-6.2 20c0 .2-.2.3-.4.2l-8-5-1.7-1.2L30.3 7.5l.4-.6Z"/>
  <path fill="#969FA4" fill-rule="evenodd" d="M31 6.5s.2.3.1.4L25 27c0 .4-.5.6-.9.4l-8-5-1.7-1.2a.4.4 0 0 1 0-.6L30 7.2l.4-.5c.1-.2.3-.3.5-.2Zm-1 1.8L15 20.8l1.3.8 7.9 5 5.6-18.3Z" clip-rule="evenodd"/>
  <defs>
    <linearGradient id="a" x1="24.4" x2="11.9" y1="3.3" y2="30.4" gradientUnits="userSpaceOnUse">
      <stop offset="0" stop-color="#ABB3B7"/>
      <stop offset="1" stop-color="#BBD3DF"/>
    </linearGradient>
  </defs>
</svg>
