<svg xmlns="http://www.w3.org/2000/svg" width="117" height="34" fill="none">
  <path fill="#969FA4" d="M54.32 22.4c.18 0 .33.07.47.21l1.3 1.4a7.1 7.1 0 0 1-2.66 2.05c-1.04.47-2.3.7-3.77.7-1.3 0-2.49-.22-3.54-.67a7.81 7.81 0 0 1-4.39-4.72 10.82 10.82 0 0 1 .08-7.27 8.34 8.34 0 0 1 4.71-4.72 9.83 9.83 0 0 1 3.7-.67c1.3 0 2.45.21 3.43.64.98.41 1.83.97 2.53 1.66l-1.1 1.53a.96.96 0 0 1-.26.25.68.68 0 0 1-.41.11.96.96 0 0 1-.58-.22 6.04 6.04 0 0 0-1.9-.95 5.82 5.82 0 0 0-1.74-.22c-.83 0-1.6.15-2.3.44a5.1 5.1 0 0 0-2.97 3.2 7.57 7.57 0 0 0-.41 2.59c0 1 .13 1.88.41 2.65a5.9 5.9 0 0 0 1.15 1.95 4.95 4.95 0 0 0 3.8 1.64c.45 0 .85-.02 1.21-.07a5.03 5.03 0 0 0 1.87-.64c.28-.17.55-.38.82-.62a1 1 0 0 1 .26-.17.6.6 0 0 1 .3-.07Zm13.42 4.17h-1.36c-.28 0-.5-.04-.67-.12a.9.9 0 0 1-.37-.53l-.27-.89c-.31.29-.63.54-.94.76a5.7 5.7 0 0 1-1.98.87 6.25 6.25 0 0 1-2.69-.1 2.95 2.95 0 0 1-1.9-1.71 3.77 3.77 0 0 1-.27-1.48 3 3 0 0 1 .36-1.4 3.5 3.5 0 0 1 1.25-1.24 7.82 7.82 0 0 1 2.31-.93 16.5 16.5 0 0 1 3.58-.41v-.73c0-.84-.18-1.46-.54-1.86-.35-.4-.86-.61-1.54-.61a3.74 3.74 0 0 0-2.07.56l-.66.38c-.2.11-.43.17-.68.17a.87.87 0 0 1-.52-.16c-.15-.1-.27-.23-.36-.39l-.55-.96a7.46 7.46 0 0 1 5.22-1.98 5 5 0 0 1 1.96.36 4.05 4.05 0 0 1 2.37 2.53c.21.6.32 1.25.32 1.96v7.91Zm-5.87-1.88a4 4 0 0 0 .86-.09 3.83 3.83 0 0 0 1.4-.67c.22-.17.44-.37.66-.6v-2.1c-.88.03-1.61.1-2.21.22a5.7 5.7 0 0 0-1.42.42c-.36.17-.61.37-.77.6-.14.22-.22.47-.22.74 0 .53.16.91.47 1.14.31.23.73.34 1.23.34Zm8.35 1.88V14.04h1.77c.31 0 .53.06.65.17.12.11.2.3.24.59l.19 1.51c.44-.77.97-1.38 1.57-1.83a3.3 3.3 0 0 1 2.03-.67c.62 0 1.13.14 1.54.42l-.39 2.26c-.02.15-.08.26-.16.32a.57.57 0 0 1-.33.09c-.12 0-.29-.03-.5-.09-.21-.06-.5-.08-.84-.08-.63 0-1.17.17-1.62.52a4 4 0 0 0-1.13 1.52v7.8h-3.02Zm18.31 0c-.39 0-.65-.18-.77-.55l-.24-1.2c-.26.29-.54.55-.82.79a5.08 5.08 0 0 1-3.22 1.14 4.15 4.15 0 0 1-3.36-1.66 6.17 6.17 0 0 1-.95-2.01 10.31 10.31 0 0 1 .05-5.33 6.3 6.3 0 0 1 1.09-2.07 5 5 0 0 1 5.72-1.53c.5.22.94.52 1.33.89V8.42h3.02v18.15h-1.85Zm-4.02-2.21a3.1 3.1 0 0 0 1.6-.4c.44-.25.86-.62 1.25-1.1v-5.62a2.95 2.95 0 0 0-2.42-1.14 3 3 0 0 0-1.25.26 2.5 2.5 0 0 0-.94.78 3.8 3.8 0 0 0-.59 1.32 7.5 7.5 0 0 0-.2 1.88c0 .73.05 1.36.17 1.87.12.5.3.92.51 1.25a2 2 0 0 0 .8.7c.33.13.68.2 1.07.2Zm13.83-10.52c.8 0 1.52.13 2.18.38a4.72 4.72 0 0 1 2.84 2.9 6.68 6.68 0 0 1 .37 2.98.82.82 0 0 1-.1.35.46.46 0 0 1-.22.18.84.84 0 0 1-.34.05h-7.75c.1 1.29.44 2.23 1.04 2.84.6.6 1.4.9 2.4.9a4.27 4.27 0 0 0 2.18-.55c.27-.14.5-.26.7-.38.2-.11.4-.17.59-.17.12 0 .23.03.32.08a.7.7 0 0 1 .23.2l.88 1.1a5.18 5.18 0 0 1-2.43 1.63 8.04 8.04 0 0 1-2.74.43 6.8 6.8 0 0 1-2.43-.43 5.56 5.56 0 0 1-3.27-3.39 8.18 8.18 0 0 1-.06-5.31 5.64 5.64 0 0 1 3.08-3.3c.75-.32 1.6-.49 2.53-.49Zm.06 2.17a2.8 2.8 0 0 0-2.06.74c-.5.5-.82 1.2-.96 2.11h5.68c0-.39-.06-.75-.16-1.1a2.45 2.45 0 0 0-1.32-1.52A2.77 2.77 0 0 0 98.4 16Zm16.15 10.56c-.39 0-.64-.18-.77-.55l-.24-1.2c-.26.29-.54.55-.82.79a5.08 5.08 0 0 1-3.22 1.14 4.15 4.15 0 0 1-3.36-1.66 6.18 6.18 0 0 1-.95-2.01 10.32 10.32 0 0 1 .05-5.33c.25-.8.62-1.49 1.09-2.07a5 5 0 0 1 5.72-1.53c.5.22.94.52 1.33.89V8.42h3.02v18.15h-1.85Zm-4.02-2.21a3 3 0 0 0 1.6-.4c.44-.25.86-.62 1.25-1.1v-5.62a2.95 2.95 0 0 0-2.42-1.14 3 3 0 0 0-1.25.26 2.5 2.5 0 0 0-.94.78c-.25.34-.45.78-.58 1.32a7.44 7.44 0 0 0-.21 1.88c0 .73.05 1.36.17 1.87.12.5.3.92.51 1.25a2 2 0 0 0 .8.7c.33.13.68.2 1.07.2Z"/>
  <path fill="#969FA4" fill-rule="evenodd" d="M7.08 6.88a3.52 3.52 0 0 1 4.36-2.39l11.75 3.43a3.52 3.52 0 0 1 2.39 4.36l-5.26 18a3.52 3.52 0 0 1-4.36 2.4L4.2 29.23a3.52 3.52 0 0 1-2.39-4.36l5.27-18Zm3.6.2a.81.81 0 0 0-1 .56l-5.27 18a.8.8 0 0 0 .55 1l11.75 3.44a.81.81 0 0 0 1.01-.56l5.26-18a.81.81 0 0 0-.55-1L10.68 7.09Z" clip-rule="evenodd"/>
  <path fill="#969FA4" fill-rule="evenodd" d="M14.42 3.72a3.52 3.52 0 0 1 4.36-2.4l11.75 3.44a3.52 3.52 0 0 1 2.4 4.36l-5.27 18a3.52 3.52 0 0 1-4.36 2.39l-11.76-3.43a3.52 3.52 0 0 1-2.39-4.36l5.27-18Zm3.6.2a.81.81 0 0 0-1 .56l-5.27 18c-.12.42.12.87.55 1l11.76 3.43a.81.81 0 0 0 1-.55l5.26-18a.81.81 0 0 0-.55-1L18.02 3.92Z" clip-rule="evenodd"/>
</svg>
