<svg xmlns="http://www.w3.org/2000/svg" width="159" height="27" fill="none">
  <g fill="#969FA4" clip-path="url(#a)">
    <path d="m28.17 10.25-10.72 7.58h-4.77L1.96 10.25l13.1-8.66 13.11 8.66Z" opacity=".4"/>
    <path fill-rule="evenodd" d="M14.46.69a1.1 1.1 0 0 1 1.21 0l13.1 8.66c.31.2.5.54.5.9v14.08a2.2 2.2 0 0 1-2.18 2.17H3.04a2.2 2.2 0 0 1-2.18-2.17V10.25c0-.36.18-.7.48-.9L14.45.69ZM3.05 10.83v13.5h24.03v-13.5L15.06 2.9 3.05 10.83Z" clip-rule="evenodd"/>
    <path fill-rule="evenodd" d="M13.57 17.2c.35.5.23 1.17-.26 1.52L2.92 25.99a1.1 1.1 0 0 1-1.52-.26 1.08 1.08 0 0 1 .26-1.5l10.4-7.28a1.1 1.1 0 0 1 1.51.26Zm2.98 0a1.1 1.1 0 0 1 1.53-.25l10.38 7.27c.5.35.61 1.02.27 1.51a1.1 1.1 0 0 1-1.53.26l-10.38-7.27a1.08 1.08 0 0 1-.27-1.51Z" clip-rule="evenodd"/>
    <path fill-rule="evenodd" d="M1.07 9.62a1.1 1.1 0 0 1 1.52-.25l10.44 7.38h4.07l10.44-7.38a1.1 1.1 0 0 1 1.52.25c.35.49.24 1.17-.26 1.51l-10.72 7.58c-.18.13-.4.2-.63.2h-4.77a1.1 1.1 0 0 1-.63-.2L1.32 11.13a1.06 1.06 0 0 1-.25-1.5Z" clip-rule="evenodd"/>
    <path d="M41.02 22.5a1 1 0 0 1-.74-.3 1 1 0 0 1-.3-.73V7.8c0-.41.14-.76.44-1.05.29-.31.64-.46 1.06-.46h.3c.5 0 .92.23 1.27.68l8.9 12.75V7.33a1 1 0 0 1 .3-.73c.2-.22.45-.32.74-.32.3 0 .54.1.74.32.22.2.32.44.32.73v13.68c0 .42-.15.77-.46 1.06-.3.29-.65.43-1.06.43h-.28c-.25 0-.48-.05-.7-.16-.2-.12-.39-.27-.52-.45L42.08 9.07v12.4c0 .3-.1.54-.32.74a1 1 0 0 1-.74.3Zm21.98.12a6.24 6.24 0 0 1-3.12-.76 5.25 5.25 0 0 1-2.08-2.13c-.48-.93-.72-2-.72-3.19s.24-2.24.72-3.16a5.22 5.22 0 0 1 2.08-2.15c.9-.5 1.94-.76 3.12-.76 1.17 0 2.2.25 3.1.76.9.5 1.59 1.22 2.08 2.15.5.92.74 1.97.74 3.16a6.7 6.7 0 0 1-.74 3.2 5.25 5.25 0 0 1-2.08 2.12c-.9.5-1.93.76-3.1.76Zm0-1.9c.63 0 1.23-.15 1.8-.44a3.43 3.43 0 0 0 1.44-1.37c.38-.63.58-1.43.58-2.39 0-.95-.2-1.73-.58-2.36a3.28 3.28 0 0 0-1.44-1.35 4.11 4.11 0 0 0-3.65 0c-.57.27-1.04.72-1.4 1.35a4.58 4.58 0 0 0-.56 2.36c0 .96.18 1.76.55 2.39a3.5 3.5 0 0 0 1.41 1.37 4 4 0 0 0 1.85.44Zm12.22 1.78a1.4 1.4 0 0 1-1.34-.96l-3.28-9.53a1.22 1.22 0 0 1-.07-.4 1 1 0 0 1 .3-.73 1.03 1.03 0 0 1 1.32-.11c.18.1.3.25.37.43l2.7 8.83 2.68-8.62c.08-.24.22-.44.42-.6a1.21 1.21 0 0 1 1.4 0c.22.16.37.36.45.6l2.68 8.62 2.7-8.83a.8.8 0 0 1 .35-.43 1.08 1.08 0 0 1 1.34.12c.2.2.3.44.3.73 0 .12-.02.25-.07.39l-3.28 9.53c-.1.28-.26.5-.5.69a1.43 1.43 0 0 1-1.67 0 1.53 1.53 0 0 1-.54-.71l-2.45-7.59-2.45 7.59c-.1.29-.28.53-.53.7-.24.2-.52.28-.83.28Z"/>
    <path fill-rule="evenodd" d="m43.17 6.87 8.63 12.35V7.33c0-.33.11-.61.34-.84.23-.24.52-.37.85-.37.33 0 .62.13.85.37.24.23.37.51.37.84v13.68c0 .46-.17.85-.51 1.17a1.6 1.6 0 0 1-1.17.48h-.28a1.7 1.7 0 0 1-.77-.18c-.23-.14-.43-.3-.58-.5L42.23 9.55v11.91c0 .33-.12.62-.37.85-.23.22-.51.34-.84.34-.34 0-.62-.12-.85-.35a1.14 1.14 0 0 1-.35-.84V7.8c0-.45.16-.84.48-1.16.33-.34.72-.5 1.18-.5h.3c.55 0 1.01.25 1.4.74Zm-2.76-.13c.3-.31.65-.46 1.07-.46h.3c.5 0 .92.23 1.27.68l8.9 12.75V7.33a1 1 0 0 1 .3-.73c.2-.22.45-.32.74-.32.3 0 .54.1.74.32.22.2.32.44.32.73v13.68c0 .42-.15.77-.46 1.06-.3.29-.65.43-1.06.43h-.28c-.25 0-.48-.05-.7-.16-.2-.12-.39-.27-.52-.45L42.08 9.07v12.4c0 .3-.1.54-.32.74a1 1 0 0 1-.74.3 1 1 0 0 1-.74-.3 1 1 0 0 1-.3-.74V7.8c0-.41.14-.76.43-1.05ZM57.66 19.8a7.04 7.04 0 0 1-.73-3.26c0-1.2.24-2.29.73-3.23a5.3 5.3 0 0 1 2.14-2.21 6.4 6.4 0 0 1 3.2-.78c1.2 0 2.25.26 3.17.78a5.37 5.37 0 0 1 2.14 2.21c.51.94.76 2.02.76 3.23 0 1.22-.25 2.3-.76 3.26a5.4 5.4 0 0 1-2.14 2.2c-.92.51-1.98.77-3.17.77a6.4 6.4 0 0 1-3.2-.78 5.4 5.4 0 0 1-2.14-2.19Zm10.52-6.42a5.22 5.22 0 0 0-2.08-2.15 6.2 6.2 0 0 0-3.1-.76c-1.19 0-2.23.25-3.12.76-.9.5-1.59 1.22-2.08 2.15a6.75 6.75 0 0 0-.72 3.16c0 1.2.24 2.26.72 3.2.5.9 1.19 1.62 2.08 2.12.9.5 1.93.76 3.12.76a6.2 6.2 0 0 0 3.1-.76c.9-.5 1.59-1.21 2.08-2.13.5-.93.74-2 .74-3.19s-.25-2.24-.74-3.16Zm-3.45 6.77a3.27 3.27 0 0 0 1.37-1.32c.37-.6.56-1.36.56-2.3 0-.94-.19-1.7-.55-2.29a3.13 3.13 0 0 0-1.37-1.3 3.96 3.96 0 0 0-3.51 0h-.01c-.54.27-.99.7-1.35 1.3-.35.6-.53 1.35-.53 2.28 0 .95.18 1.71.53 2.3.36.61.81 1.05 1.35 1.32a3.96 3.96 0 0 0 3.51 0Zm-3.58.13a3.47 3.47 0 0 1-1.4-1.37 4.63 4.63 0 0 1-.56-2.39c0-.95.18-1.73.55-2.36.37-.63.84-1.08 1.41-1.35a4.11 4.11 0 0 1 3.65 0c.59.27 1.07.72 1.44 1.35.38.63.57 1.41.57 2.36 0 .96-.19 1.76-.57 2.39a3.43 3.43 0 0 1-1.44 1.37 4.11 4.11 0 0 1-3.65 0Zm26.32-8.27-3.28 9.53c-.1.28-.26.5-.51.69-.25.18-.52.27-.83.27-.31 0-.59-.09-.83-.27a1.53 1.53 0 0 1-.54-.71l-2.45-7.59-2.45 7.59c-.1.29-.28.53-.53.7-.25.2-.52.28-.83.28a1.4 1.4 0 0 1-1.34-.96l-3.28-9.53a1.23 1.23 0 0 1-.07-.4 1 1 0 0 1 .3-.73 1 1 0 0 1 .74-.3c.21 0 .4.07.57.19.19.1.31.25.37.43l2.7 8.83 2.7-8.62c.07-.24.2-.44.4-.6a1.21 1.21 0 0 1 1.42 0c.21.16.36.36.44.6l2.68 8.62 2.7-8.83a.8.8 0 0 1 .35-.43c.18-.12.38-.18.6-.18.3 0 .54.1.74.3.2.2.3.44.3.73 0 .12-.02.25-.07.39Zm-1.65-1.37a1.22 1.22 0 0 1 1.53.14c.23.22.34.5.34.84 0 .14-.02.28-.07.43l-3.29 9.54a1.55 1.55 0 0 1-1.48 1.06c-.34 0-.65-.1-.93-.3-.27-.2-.46-.46-.58-.78l-2.3-7.14-2.31 7.13v.01a1.7 1.7 0 0 1-.59.78c-.27.2-.58.3-.92.3a1.55 1.55 0 0 1-1.49-1.07c0 .01 0 .01 0 0l-3.28-9.53a1.4 1.4 0 0 1-.08-.43c0-.33.12-.62.35-.84.23-.23.51-.35.85-.35.24 0 .46.07.66.21.2.12.36.3.43.52l2.56 8.35 2.53-8.14c.09-.28.25-.5.47-.68a1.37 1.37 0 0 1 1.6 0c.24.17.4.4.5.68l2.53 8.14 2.56-8.35a.96.96 0 0 1 .4-.52Z" clip-rule="evenodd"/>
    <path d="M92.31 22.5a1 1 0 0 1-.74-.3 1 1 0 0 1-.3-.73V7.33a1 1 0 0 1 .3-.73c.2-.22.45-.32.74-.32.3 0 .54.1.74.32.21.2.32.44.32.73v14.14c0 .3-.1.54-.32.74-.2.2-.45.3-.74.3Zm5.95 0a1 1 0 0 1-.74-.3 1 1 0 0 1-.3-.73v-9.83a1 1 0 0 1 .3-.73c.2-.22.45-.32.74-.32.3 0 .54.1.74.32.21.2.32.44.32.73v.94a7.68 7.68 0 0 1 1.9-1.54 4.82 4.82 0 0 1 2.4-.57 3.87 3.87 0 0 1 3.63 2.22c.34.7.51 1.45.51 2.27v6.51c0 .3-.1.54-.32.74-.2.2-.45.3-.74.3a1 1 0 0 1-.74-.3 1 1 0 0 1-.3-.74V15.2c0-1.86-.85-2.8-2.55-2.8-.77 0-1.46.2-2.08.6-.6.4-1.17.93-1.7 1.6v6.88c0 .3-.12.54-.33.74-.2.2-.45.3-.74.3Z"/>
    <path fill-rule="evenodd" d="M92.3 22.66c-.32 0-.6-.12-.84-.35a1.15 1.15 0 0 1-.35-.84V7.33c0-.33.12-.61.35-.84.23-.24.51-.37.85-.37.33 0 .62.13.85.37.24.23.37.51.37.84v14.14c0 .33-.13.62-.37.85a1.2 1.2 0 0 1-.85.34Zm.75-.45a1 1 0 0 0 .32-.74V7.33c0-.29-.1-.53-.32-.73a.97.97 0 0 0-.74-.32c-.3 0-.54.1-.74.32a1 1 0 0 0-.3.73v14.14c0 .3.1.54.3.74.2.2.45.3.74.3a1 1 0 0 0 .74-.3Zm5.2.45c-.32 0-.6-.12-.84-.35a1.14 1.14 0 0 1-.35-.84v-9.83c0-.33.12-.61.35-.84.23-.24.51-.37.85-.37.33 0 .62.13.85.37.24.23.37.5.37.84v.56a7.6 7.6 0 0 1 1.66-1.29c.7-.4 1.53-.6 2.48-.6a4.06 4.06 0 0 1 3.77 2.32c.35.7.52 1.49.52 2.33v6.51c0 .33-.12.62-.37.85-.23.22-.51.34-.84.34-.34 0-.62-.12-.85-.35a1.15 1.15 0 0 1-.35-.84V15.2c0-.91-.2-1.57-.6-2-.38-.42-.97-.64-1.79-.64-.74 0-1.4.19-2 .57-.57.38-1.11.89-1.63 1.53v6.82c0 .33-.13.62-.37.85a1.2 1.2 0 0 1-.85.34Zm.75-.45a1 1 0 0 0 .32-.74V14.6a7.59 7.59 0 0 1 1.71-1.6c.62-.4 1.31-.6 2.08-.6 1.7 0 2.55.93 2.55 2.8v6.27c0 .3.1.54.3.74.2.2.44.3.74.3.29 0 .53-.1.74-.3a1 1 0 0 0 .32-.74v-6.5c0-.83-.17-1.59-.5-2.28a3.78 3.78 0 0 0-1.44-1.62c-.62-.4-1.35-.6-2.2-.6-.92 0-1.72.2-2.4.57a7.56 7.56 0 0 0-1.9 1.54v-.94c0-.29-.1-.53-.32-.73a.97.97 0 0 0-.74-.32c-.3 0-.54.1-.74.32a1 1 0 0 0-.3.73v9.83c0 .3.1.54.3.74.2.2.45.3.74.3a1 1 0 0 0 .74-.3Z" clip-rule="evenodd"/>
    <path d="M114.9 22.5c-.29 0-.54-.1-.74-.3a1 1 0 0 1-.3-.73V8.34h-4.71a.94.94 0 0 1-.97-.96 1 1 0 0 1 .27-.7.9.9 0 0 1 .7-.29h11.51c.28 0 .5.1.7.3.2.18.3.41.3.69 0 .27-.1.5-.3.68a.94.94 0 0 1-.7.28h-4.7v13.13c0 .3-.1.54-.32.74a1 1 0 0 1-.74.3Zm12.67.12c-1.88 0-3.35-.53-4.41-1.58-1.05-1.07-1.58-2.57-1.58-4.5 0-1.08.2-2.08.6-3a5.1 5.1 0 0 1 1.85-2.22 5.34 5.34 0 0 1 3.08-.85c1.14 0 2.12.27 2.96.8a5.03 5.03 0 0 1 1.9 2.11c.42.87.64 1.83.64 2.87a1 1 0 0 1-.3.73 1 1 0 0 1-.76.3h-7.84c.12 1.07.52 1.9 1.2 2.5.68.6 1.63.89 2.84.89a6.86 6.86 0 0 0 3.13-.71.93.93 0 0 1 1.06.16c.18.17.28.38.28.64 0 .34-.2.62-.6.85-.6.34-1.2.59-1.78.76a8.4 8.4 0 0 1-2.27.25Zm2.96-7.04a3.58 3.58 0 0 0-.6-1.88 3.1 3.1 0 0 0-1.27-1.1 3.54 3.54 0 0 0-3.1 0c-.51.23-.93.6-1.27 1.1-.34.5-.53 1.13-.58 1.88h6.82Zm10.32 7.04a6.56 6.56 0 0 1-3.08-.74 5.76 5.76 0 0 1-2.26-2.1 6.1 6.1 0 0 1-.83-3.24c0-1.23.27-2.31.83-3.23a5.76 5.76 0 0 1 2.26-2.1 6.56 6.56 0 0 1 3.08-.74c.81 0 1.52.1 2.1.32.6.2 1.16.46 1.67.78.3.2.46.47.46.8 0 .23-.1.45-.28.65a.8.8 0 0 1-.6.27c-.17 0-.34-.05-.5-.14a8.42 8.42 0 0 0-1.33-.55c-.35-.12-.8-.18-1.34-.18-1.32 0-2.36.38-3.12 1.15a4 4 0 0 0-1.13 2.97c0 1.24.38 2.24 1.13 3 .76.76 1.8 1.13 3.12 1.13a4.59 4.59 0 0 0 2.66-.73c.17-.1.34-.14.51-.14.23 0 .43.1.6.3.19.18.28.39.28.62 0 .33-.16.6-.46.8a6.59 6.59 0 0 1-3.77 1.1Zm7.91-.12a1.01 1.01 0 0 1-1.04-1.03V6.6a1 1 0 0 1 .3-.74 1 1 0 0 1 .74-.32c.3 0 .54.11.74.32a1 1 0 0 1 .32.74v5.98a7.66 7.66 0 0 1 1.9-1.54 4.82 4.82 0 0 1 2.4-.57 3.87 3.87 0 0 1 3.63 2.22c.34.7.5 1.45.5 2.27v6.51c0 .3-.1.54-.31.74a1 1 0 0 1-.74.3 1 1 0 0 1-.74-.3 1 1 0 0 1-.3-.74V15.2c0-1.86-.85-2.8-2.55-2.8-.77 0-1.46.2-2.08.6-.6.4-1.17.93-1.7 1.6v6.88c0 .3-.12.54-.33.74-.2.2-.45.3-.74.3Z"/>
    <path fill-rule="evenodd" d="M123.04 21.14c-1.08-1.1-1.61-2.64-1.61-4.6 0-1.1.2-2.12.61-3.06a5.26 5.26 0 0 1 1.9-2.29 5.5 5.5 0 0 1 3.17-.87 5.5 5.5 0 0 1 3.04.82 5.2 5.2 0 0 1 1.95 2.18c.44.89.66 1.87.66 2.93a1.16 1.16 0 0 1-1.21 1.18h-7.67c.15.96.53 1.7 1.13 2.23a4 4 0 0 0 2.74.86 6.86 6.86 0 0 0 3.05-.7 1.18 1.18 0 0 1 1.24.19c.22.2.33.45.33.75 0 .41-.25.74-.68.98-.61.34-1.21.6-1.81.77a8.3 8.3 0 0 1-2.31.26c-1.91 0-3.42-.54-4.52-1.63Zm.69-3.71-.02-.15h7.84a1 1 0 0 0 .76-.3c.2-.2.3-.44.3-.73 0-1.04-.22-2-.65-2.87a5.04 5.04 0 0 0-1.9-2.1 5.35 5.35 0 0 0-2.95-.8c-1.22 0-2.25.27-3.08.84a5.12 5.12 0 0 0-1.85 2.22c-.4.92-.6 1.92-.6 3 0 1.93.53 3.43 1.58 4.5 1.06 1.05 2.53 1.58 4.41 1.58.92 0 1.68-.09 2.27-.25a8.42 8.42 0 0 0 1.78-.76c.4-.23.6-.51.6-.85 0-.26-.1-.47-.28-.64a.93.93 0 0 0-.65-.25c-.15 0-.3.03-.41.09a7 7 0 0 1-3.13.71c-1.21 0-2.16-.3-2.84-.9a3.7 3.7 0 0 1-1.18-2.34Zm6.07-3.64a2.85 2.85 0 0 0-1.2-1.05h-.01a3.38 3.38 0 0 0-1.48-.35c-.5 0-1 .11-1.48.35-.49.22-.9.56-1.21 1.05-.3.44-.48.98-.55 1.64h6.5a3.34 3.34 0 0 0-.57-1.64Zm.72 1.64v.15h-6.81l.01-.15c.06-.68.25-1.26.57-1.73.34-.5.76-.87 1.27-1.1a3.54 3.54 0 0 1 3.1 0c.5.23.93.6 1.27 1.1.33.47.52 1.05.59 1.73Zm4.86 4.43a6.26 6.26 0 0 1-.86-3.32 5.9 5.9 0 0 1 3.18-5.48c.97-.5 2.01-.74 3.15-.74.83 0 1.55.1 2.15.33.61.2 1.18.47 1.7.8.35.22.53.53.53.92 0 .28-.11.53-.32.75a.95.95 0 0 1-.71.32c-.2 0-.4-.05-.58-.15a7.5 7.5 0 0 0-1.29-.54 4.01 4.01 0 0 0-1.3-.18c-1.3 0-2.29.37-3 1.1a3.86 3.86 0 0 0-1.1 2.87c0 1.2.37 2.17 1.1 2.9a4.09 4.09 0 0 0 3 1.08c.53 0 .96-.05 1.3-.16.36-.11.79-.3 1.29-.56.19-.1.38-.15.58-.15.28 0 .52.12.71.34a1 1 0 0 1 .32.73c0 .39-.18.7-.53.93a6.73 6.73 0 0 1-3.85 1.12 6.71 6.71 0 0 1-3.15-.75 5.9 5.9 0 0 1-2.32-2.16Zm9.42.24a.77.77 0 0 0-.6-.3c-.17 0-.34.05-.5.14a4.73 4.73 0 0 1-2.66.73 4.24 4.24 0 0 1-3.13-1.12 4.09 4.09 0 0 1-1.13-3 4 4 0 0 1 1.13-2.98 4.19 4.19 0 0 1 3.12-1.15c.54 0 .99.06 1.34.18.37.11.81.3 1.32.55.17.1.34.14.51.14a.8.8 0 0 0 .6-.27.91.91 0 0 0-.18-1.44 7.55 7.55 0 0 0-1.67-.79 6.15 6.15 0 0 0-2.1-.32 6.7 6.7 0 0 0-3.08.73 5.8 5.8 0 0 0-2.26 2.11c-.56.92-.83 2-.83 3.23 0 1.24.27 2.32.83 3.24a5.76 5.76 0 0 0 2.26 2.1c.94.5 1.97.74 3.08.74a6.58 6.58 0 0 0 3.77-1.1c.3-.2.46-.47.46-.8 0-.23-.1-.44-.28-.62Zm-29.9 2.56c-.33 0-.61-.12-.84-.35a1.15 1.15 0 0 1-.35-.84V8.5h-4.56a1.1 1.1 0 0 1-1.13-1.11 1.13 1.13 0 0 1 1.12-1.14h11.52c.32 0 .59.11.8.34.23.21.35.48.35.8 0 .31-.12.58-.35.8a1.1 1.1 0 0 1-.8.31h-4.54v12.98c0 .33-.13.62-.37.85a1.2 1.2 0 0 1-.85.34Zm.74-.45c.22-.2.33-.45.33-.74V8.34h4.69a1 1 0 0 0 .7-.28.9.9 0 0 0 .3-.68.9.9 0 0 0-.3-.7.9.9 0 0 0-.7-.29h-11.51a.9.9 0 0 0-.7.3.93.93 0 0 0-.27.69.94.94 0 0 0 .97.96h4.71v13.13c0 .3.1.54.3.74.2.2.45.3.74.3a1 1 0 0 0 .74-.3Zm33.12.45c-.33 0-.62-.12-.85-.35a1.14 1.14 0 0 1-.35-.84V6.6c0-.33.12-.61.35-.84.23-.24.51-.37.85-.37.33 0 .62.12.85.37.24.22.37.5.37.84v5.6a7.62 7.62 0 0 1 1.66-1.29c.7-.4 1.54-.6 2.48-.6a4.08 4.08 0 0 1 3.77 2.32c.35.7.52 1.49.52 2.33v6.51c0 .33-.12.62-.37.85-.23.22-.51.34-.84.34a1.16 1.16 0 0 1-1.2-1.19V15.2c0-.91-.2-1.57-.6-2-.38-.42-.97-.64-1.79-.64-.74 0-1.4.19-2 .57-.57.38-1.11.89-1.63 1.53v6.82c0 .33-.13.62-.38.85-.22.22-.51.34-.84.34Zm.74-.45a1 1 0 0 0 .32-.74V14.6a7.26 7.26 0 0 1 1.71-1.6c.62-.4 1.31-.6 2.08-.6 1.7 0 2.55.93 2.55 2.8v6.27c0 .3.1.54.3.74.2.2.44.3.74.3a1 1 0 0 0 .74-.3 1 1 0 0 0 .32-.74v-6.5c0-.83-.17-1.59-.5-2.28a3.79 3.79 0 0 0-1.44-1.62c-.62-.4-1.35-.6-2.2-.6-.92 0-1.72.2-2.4.57a7.53 7.53 0 0 0-1.9 1.54V6.6c0-.3-.1-.54-.32-.74a.97.97 0 0 0-.74-.32c-.3 0-.54.11-.74.32a1 1 0 0 0-.3.74v14.87c0 .3.1.54.3.74.2.2.45.3.74.3a1 1 0 0 0 .74-.3Z" clip-rule="evenodd"/>
  </g>
  <defs>
    <clipPath id="a">
      <path fill="#fff" d="M0 0h159v27H0z"/>
    </clipPath>
  </defs>
</svg>
